# xmcd
#
# Track frame offsets:
#	187
#	17247
#	33677
#	52812
#	70375
#	93355
#	115797
#	128885
#	148715
#	166335
#
# Disc length: 2396 seconds
#
# Revision: 1
# Processed by: cddbd v1.4PL0 Copyright (c) Steve Scherf et al.
# Submitted via: EasyCDDAExtractor 5.0.7
#
DISCID=88095a0a
DTITLE=Various Artist - Buoc Tinh Hong
DYEAR=1900
DGENRE=
TTITLE0=Kieu Nga - Goodbye to love
TTITLE1=Ngoc Lan - Buoc tinh hong
TTITLE2=Elvis Phuong - San francisco yeu kieu
TTITLE3=Kieu Nga - Yesterday once more
TTITLE4=Ngoc Lan - Khi co chang
TTITLE5=Elvis Phuong - Phien khuc mua dong
TTITLE6=Elvis Phuong - Mr. Postman
TTITLE7=Ngoc Lan, Kieu Nga and Elvis Phuong - Tinh thu cua linh
TTITLE8=Ngoc Lan, Kieu Nga and Elvis Phuong - Je sais
TTITLE9=Kieu Nga - Top of the world
EXTD=
EXTT0=
EXTT1=
EXTT2=
EXTT3=
EXTT4=
EXTT5=
EXTT6=
EXTT7=
EXTT8=
EXTT9=
PLAYORDER=
